<svg width="1082" height="1080" viewBox="0 0 1082 1080" fill="none" xmlns="http://www.w3.org/2000/svg">
<path fill-rule="evenodd" clip-rule="evenodd" d="M348.685 534.728C347.668 519.428 341.93 504.805 332.246 492.918C322.587 481.031 309.465 472.412 294.697 468.321L294.479 468.248L294.261 468.2C276.104 464.084 261.118 465.997 248.311 471.831C235.794 477.545 226.038 486.72 217.709 495.896C214.32 499.6 211.052 503.474 207.929 507.178C207.517 507.662 205.605 510.01 203.837 512.165C202.578 513.714 201.392 515.167 200.908 515.724C196.913 513.012 192.676 511.148 188.27 509.962C177.787 507.153 166.675 507.662 156.507 511.439C146.339 515.215 137.575 522.067 131.474 531.049C125.349 540.055 122.177 550.707 122.395 561.553C122.613 572.399 126.196 582.93 132.636 591.646C139.1 600.386 148.106 606.874 158.42 610.263L158.613 610.336L158.807 610.384C165.198 611.377 175.536 612.103 187.641 609.101C204.83 604.816 216.063 595.326 221.123 590.435C231.436 601.766 244.389 608.472 259.326 611.764C274.288 615.057 289.903 613.628 303.993 607.624C318.084 601.644 329.946 591.404 337.96 578.33C345.973 565.257 349.702 550.029 348.685 534.728ZM211.778 575.498C209.599 578.04 206.04 581.72 200.908 585.061C196.72 587.772 178.538 601.814 160.671 593.098C146.242 586.053 142.175 568.477 141.908 567.242C141.352 564.7 139.802 557.171 143.119 548.504C143.7 546.979 146.29 540.587 152.633 535.358C159.824 529.402 172.292 524.294 183.574 528.652C193.5 532.477 198.269 541.991 200.545 546.519C203.329 552.063 203.886 556.372 210.834 573.198C211.221 574.166 211.56 574.965 211.778 575.498ZM320.916 567.46C314.96 577.217 307.213 584.77 296.706 589.249C286.199 593.728 275.184 595.326 264.023 592.88C252.959 590.435 243.856 584.31 236.182 575.934C239.813 571.915 244.534 567.484 250.514 563.344C265.33 553.079 275.159 549.4 284.141 548.31L267.098 545.889L287.773 534.995L241.774 543.468C246.543 544.461 247.197 545.768 251.966 546.761C248.625 548.141 244.873 549.932 240.951 552.329C235.189 555.815 230.638 559.544 227.151 562.836C227.151 562.836 224.052 557.219 223.544 556.299C217.952 546.034 214.393 529.935 214.393 529.911C216.33 526.594 218.944 522.575 222.382 518.242C223.617 516.692 226.134 513.617 229.597 510.107C234.753 504.878 242.791 496.767 255.549 491.175C259.229 489.553 264.313 487.398 271.431 486.502C276.757 485.849 282.689 486.018 289.443 487.543C300.386 490.618 310.094 496.864 317.285 505.701C321.424 510.785 324.523 516.184 326.581 522.042C327.283 524.052 329.002 529.354 329.39 535.963C330.285 550.707 324.039 562.4 320.916 567.46Z" fill="url(#paint0_linear_360_825)"/>
<path fill-rule="evenodd" clip-rule="evenodd" d="M220.691 591.087C225.727 586.269 231.125 580.749 236.161 575.932C242.48 583.098 249.452 586.729 254.754 589.174C280.635 601.134 315.085 600.916 343.822 566.078C340.506 575.157 331.935 595.324 305.74 607.453C285.065 617.04 266.06 613.82 260.419 612.779C255.408 611.859 243.666 609.559 231.61 600.916C226.695 597.381 223.088 593.774 220.643 591.038L220.691 591.087Z" fill="url(#paint1_linear_360_825)"/>
<path fill-rule="evenodd" clip-rule="evenodd" d="M320.991 515.048C322.783 518.244 328.278 528.92 326.705 544.245C325.785 553.058 322.444 560.03 321.33 562.33C320.459 564.17 318.643 567.923 315.302 572.353C313.268 575.064 309.855 579.18 303.56 583.635C302.011 584.748 298.331 587.169 291.14 589.566C280.948 592.98 272.426 594.36 266.689 593.609C269.666 594.239 273.225 594.771 277.292 594.82C277.438 594.82 280.585 594.82 283.587 594.553C302.882 592.641 318.134 579.471 318.134 579.471C318.377 579.253 321.185 576.832 323.533 574.217C338.616 557.464 349.68 516.985 329.053 490.282C320.58 479.314 309.83 474.618 304.504 472.294C282.958 462.876 263.081 467.258 256.787 468.759C220.133 477.402 202.992 510.376 200.354 515.653C202.508 517.227 204.929 519.261 207.399 521.827C210.231 524.781 212.386 527.686 213.984 530.179C217.107 525.023 237.249 489.676 269.981 486.674C273.322 486.36 282.57 488.054 292.157 490.427C307.046 494.131 318.715 510.933 321.015 515.048H320.991Z" fill="url(#paint2_linear_360_825)"/>
<path fill-rule="evenodd" clip-rule="evenodd" d="M267.314 545.995C274.916 546.963 277.032 547.304 289.331 548.563C256.454 554.567 240.906 571.501 230.472 581.863C228.269 584.066 226.502 586.003 223.911 588.424C223.911 588.424 222.168 590.022 220.304 591.62C212.702 598.084 204.35 605.153 194.181 609.366C191.204 610.6 182.948 613.893 172.393 613.602C150.797 613.021 136.635 597.89 135.473 596.607C119.615 579.152 118.889 553.199 127.822 536.034C132.737 526.568 140.072 520.83 143.389 518.506C147.481 515.649 156.245 510.589 165.493 511.534C165.807 511.558 164.839 511.437 165.493 511.534C173.385 512.865 189.388 517.949 192.729 519.862C199.338 523.59 201.904 526.737 202.679 527.73C205.536 531.41 206.674 534.993 207.037 536.228C207.908 539.254 207.763 540.973 207.86 546.807C207.981 553.78 208.029 557.242 208.489 561.115C208.489 561.115 208.707 562.98 210.983 575.012C209.167 571.429 207.327 567.362 205.633 562.883C204.18 559.082 203.018 555.475 202.098 552.109C201.13 548.986 198.878 543.224 193.552 538.165C192.124 536.809 181.568 527.488 166.703 529.691C155.809 531.313 147.335 539.351 143.704 548.889C138.475 562.616 143.898 574.77 145.859 578.135C147.117 580.29 152.613 589.15 163.265 593.266C185.175 601.764 208.393 577.336 216.116 571.865C239.115 550.076 250.227 547.848 250.227 547.848L236.912 544.217C252.648 540.586 313.109 525.728 315.385 524.711L267.314 545.995Z" fill="url(#paint3_linear_360_825)"/>
<path fill-rule="evenodd" clip-rule="evenodd" d="M228.29 561.188C228.145 560.946 227.491 560.196 227.225 559.712C218.485 546.178 218.195 538.964 213.692 530.176C209.479 521.944 202.918 517.126 200.086 515.262C184.567 505.118 165.935 508.575 161.263 509.665C154.823 511.19 150.165 514.391 147.018 516.11C151.206 514.996 160.26 513.18 170.816 516.303C173.261 517.03 178.66 519.039 184.591 523.252C201.538 535.356 202.749 553.514 202.749 553.514C202.749 553.514 202.773 553.877 202.846 554.555C203.693 557.508 204.71 560.68 205.944 563.973C207.615 568.379 209.406 572.349 211.198 575.86C214.345 573.221 216.306 571.865 218.945 569.638C221.681 567.313 224.271 565.038 226.692 562.786L228.29 561.188Z" fill="url(#paint4_linear_360_825)"/>
<path fill-rule="evenodd" clip-rule="evenodd" d="M200.428 515.434C202.776 517.201 205.633 519.646 208.417 522.987C211.734 526.934 213.864 530.783 215.22 533.761C218.077 527.006 223.233 517.177 232.506 507.735C237.614 502.821 243.158 499.117 244.877 497.979C250.058 494.638 261.824 488.295 277.56 488.295C289.786 488.852 300.947 493.476 305.402 496.768C303.223 494.71 278.093 470.355 245.676 478.006C227.252 482.363 216.14 493.694 212.073 498.124C206.19 504.54 202.582 510.907 200.428 515.458V515.434Z" fill="url(#paint5_linear_360_825)"/>
<path d="M141.983 567.071C142.806 571.356 145.712 583.171 156.291 591.935C168.59 602.127 183.164 601.304 189.435 600.989C212.507 599.827 227.686 584.962 231.923 580.484C229.768 582.832 226.621 586.124 222.65 589.829C217.76 594.38 212.676 599.125 205.655 603.507C203.864 604.621 196.988 608.979 189.895 611.061C174.788 615.636 155.855 614.983 139.707 600.941C124.867 588.013 122.591 570.509 122.18 564.529C121.114 549.447 126.683 536.857 131.065 530.805C134.599 525.915 139.102 522.186 139.102 522.186C139.102 522.186 142.782 519.063 146.656 517.078C158.252 511.122 186.336 516.134 195.366 532.112C197.085 535.139 200.741 542.184 202.266 550.536C202.653 552.666 202.871 554.434 202.992 555.644C202.459 553.465 198.901 539.932 185.706 533.25C183.285 532.015 174.618 527.827 164.038 530.684C152.853 533.71 147.479 542.498 146.026 544.919C140.41 554.361 141.33 563.73 141.983 567.047V567.071Z" fill="url(#paint6_linear_360_825)"/>
<path d="M146.996 516.084C146.996 516.084 138.062 520.006 130.606 531.288C129.54 532.886 128.572 534.605 128.572 534.605C127.337 536.832 126.151 539.35 125.158 542.134C120.728 554.36 121.842 565.666 123.222 572.59C123.609 567.99 125.328 555.45 135.23 544.386C137.578 541.747 144.454 534.266 156.292 530.877C159.319 530.005 169.172 527.318 180.333 530.973C185.853 532.789 188.855 535.065 189.678 535.67C195.779 540.246 199.216 546.177 200.378 548.55C201.831 551.455 202.654 554.07 203.163 556.006C202.969 551.867 201.783 534 188.104 523.638C185.828 521.314 178.493 516.23 174.789 515.164C167.574 513.082 156.51 511.92 147.02 516.084H146.996Z" fill="url(#paint7_linear_360_825)"/>
<path d="M656.958 524.907C655.381 524.907 653.864 524.543 651.923 522.723L627.048 500.396V524.239H615.643V490.568C615.643 485.168 618.919 482.984 622.498 482.984C624.015 482.984 625.532 483.348 627.534 485.168L652.408 507.495V483.652H663.875V517.262C663.875 522.662 660.598 524.907 656.958 524.907Z" fill="#09C388"/>
<path d="M577.016 513.809H611.536L603.467 524.244H564.396V483.656H611.415L603.285 494.213H577.016V499.066H609.17L601.951 508.288H577.016V513.809Z" fill="#09C388"/>
<path d="M525.59 513.809H560.111L552.042 524.244H512.971V483.656H559.989L551.86 494.213H525.59V499.066H557.745L550.525 508.288H525.59V513.809Z" fill="#09C388"/>
<path d="M500.992 516.357L508.454 524.244H491.649L482.609 513.506H463.316V524.244H450.758V503.495H486.067C489.95 503.495 492.984 501.736 492.984 498.945C492.984 495.79 490.375 494.213 486.067 494.213H450.758L458.948 483.656H485.036C494.258 483.656 505.906 486.568 505.906 498.156C505.906 504.466 501.963 509.683 495.289 511.018C496.684 512.049 498.201 513.506 500.992 516.357Z" fill="#09C388"/>
<path d="M410.173 507.924L417.696 498.884H443.662V524.244H415.815C401.74 524.244 391.365 515.326 391.365 503.556C391.365 491.665 401.74 483.656 415.815 483.656H444.875L436.746 494.213H415.815C409.02 494.213 403.863 498.338 403.863 504.102C403.863 509.987 408.838 513.809 415.815 513.809H431.164V507.924H410.173Z" fill="#09C388"/>
<path d="M945.225 555.91H960.999L936.913 583.09V596.498H924.294V583.029L899.541 555.91H915.679L925.386 567.195C926.66 568.651 930.058 572.352 930.907 573.565C931.696 572.412 933.091 570.653 936.003 567.134L945.225 555.91Z" fill="#000155"/>
<path d="M862.171 580.17L869.694 571.13H895.66V596.49H867.813C853.738 596.49 843.363 587.572 843.363 575.802C843.363 563.911 853.738 555.902 867.813 555.902H896.874L888.744 566.459H867.813C861.018 566.459 855.861 570.584 855.861 576.348C855.861 582.233 860.836 586.055 867.813 586.055H883.162V580.17H862.171Z" fill="#000155"/>
<path d="M808.628 555.238C828.346 555.238 838.295 561.669 838.295 576.169C838.295 590.669 828.346 597.161 808.628 597.161C788.85 597.161 778.961 590.669 778.961 576.169C778.961 561.669 788.85 555.238 808.628 555.238ZM808.628 586.604C821.247 586.604 825.798 584.906 825.798 576.169C825.798 567.433 821.247 565.795 808.628 565.795C796.009 565.795 791.459 567.433 791.459 576.169C791.459 584.906 796.009 586.604 808.628 586.604Z" fill="#000155"/>
<path d="M746.228 586.055H777.655L769.525 596.49H733.67V555.902H746.228V586.055Z" fill="#000155"/>
<path d="M697.659 555.238C717.377 555.238 727.327 561.669 727.327 576.169C727.327 590.669 717.377 597.161 697.659 597.161C677.881 597.161 667.992 590.669 667.992 576.169C667.992 561.669 677.881 555.238 697.659 555.238ZM697.659 586.604C710.279 586.604 714.829 584.906 714.829 576.169C714.829 567.433 710.279 565.795 697.659 565.795C685.04 565.795 680.49 567.433 680.49 576.169C680.49 584.906 685.04 586.604 697.659 586.604Z" fill="#000155"/>
<path d="M654.943 597.161C653.365 597.161 651.849 596.797 649.907 594.977L625.033 572.65V596.493H613.627V562.822C613.627 557.422 616.903 555.238 620.483 555.238C621.999 555.238 623.516 555.602 625.518 557.422L650.393 579.749V555.906H661.859V589.516C661.859 594.916 658.583 597.161 654.943 597.161Z" fill="#000155"/>
<path d="M606.078 555.91V596.498H593.58V580.845H569.434V596.498H556.814V555.91H569.434V570.289H593.58V555.91H606.078Z" fill="#000155"/>
<path d="M523.999 586.055H552.452L544.383 596.49H523.999C509.923 596.49 499.549 587.572 499.549 575.802C499.549 563.911 509.923 555.902 523.999 555.902H552.452L544.383 566.459H523.999C517.204 566.459 512.107 570.524 512.107 576.348C512.107 582.111 517.143 586.055 523.999 586.055Z" fill="#000155"/>
<path d="M462.02 586.063H496.54L488.471 596.498H449.4V555.91H496.419L488.289 566.467H462.02V571.32H494.174L486.955 580.542H462.02V586.063Z" fill="#000155"/>
<path d="M399.495 555.91H445.604L437.474 566.467H422.974V596.498H410.415V566.467H391.365L399.495 555.91Z" fill="#000155"/>
<defs>
<linearGradient id="paint0_linear_360_825" x1="315.566" y1="483.355" x2="227.2" y2="562.449" gradientUnits="userSpaceOnUse">
<stop stop-color="#E9AF05"/>
<stop offset="0.36" stop-color="#FFE139"/>
<stop offset="1" stop-color="#FFE601"/>
</linearGradient>
<linearGradient id="paint1_linear_360_825" x1="231.804" y1="614.28" x2="242.698" y2="565.86" gradientUnits="userSpaceOnUse">
<stop stop-color="#00DB5B"/>
<stop offset="1" stop-color="#0B43B6"/>
</linearGradient>
<linearGradient id="paint2_linear_360_825" x1="264.97" y1="448.35" x2="271.022" y2="528.243" gradientUnits="userSpaceOnUse">
<stop stop-color="#E9B006"/>
<stop offset="1" stop-color="#FFED6D"/>
</linearGradient>
<linearGradient id="paint3_linear_360_825" x1="133.754" y1="590.07" x2="200.161" y2="545.427" gradientUnits="userSpaceOnUse">
<stop stop-color="#0E00D4"/>
<stop offset="1" stop-color="#02EE67"/>
</linearGradient>
<linearGradient id="paint4_linear_360_825" x1="228.484" y1="584.697" x2="178.539" y2="512.6" gradientUnits="userSpaceOnUse">
<stop stop-color="#3183CE"/>
<stop offset="1" stop-color="#01F757"/>
</linearGradient>
<linearGradient id="paint5_linear_360_825" x1="251.147" y1="485.462" x2="254.779" y2="527.829" gradientUnits="userSpaceOnUse">
<stop stop-color="#FFF08A"/>
<stop offset="1" stop-color="#DABE03"/>
</linearGradient>
<linearGradient id="paint6_linear_360_825" x1="141.015" y1="522.283" x2="254.123" y2="625.441" gradientUnits="userSpaceOnUse">
<stop stop-color="#326FE4"/>
<stop offset="0.657863" stop-color="#29ED59"/>
</linearGradient>
<linearGradient id="paint7_linear_360_825" x1="111.964" y1="534.387" x2="222.119" y2="573.123" gradientUnits="userSpaceOnUse">
<stop stop-color="#32EF67"/>
<stop offset="1" stop-color="#308CC5"/>
</linearGradient>
</defs>
</svg>
