<svg width="1082" height="1080" fill="none" xmlns="http://www.w3.org/2000/svg"><path fill-rule="evenodd" clip-rule="evenodd" d="M348.685 534.728a73.973 73.973 0 00-16.439-41.81c-9.659-11.887-22.781-20.506-37.549-24.597l-.218-.073-.218-.048c-18.157-4.116-33.143-2.203-45.95 3.631-12.517 5.714-22.273 14.889-30.602 24.065-3.389 3.704-6.657 7.578-9.78 11.282-.412.484-2.324 2.832-4.092 4.987-1.259 1.549-2.445 3.002-2.929 3.559-3.995-2.712-8.232-4.576-12.638-5.762a52.35 52.35 0 00-31.763 1.477 52.261 52.261 0 00-25.033 19.61 52.362 52.362 0 00-9.079 30.504 52.45 52.45 0 0010.241 30.093 52.379 52.379 0 0025.784 18.617l.193.073.194.048a73.3 73.3 0 0028.834-1.283c17.189-4.285 28.422-13.775 33.482-18.666 10.313 11.331 23.266 18.037 38.203 21.329 14.962 3.293 30.577 1.864 44.667-4.14 14.091-5.98 25.953-16.22 33.967-29.294 8.013-13.073 11.742-28.301 10.725-43.602zm-136.907 40.77c-2.179 2.542-5.738 6.222-10.87 9.563-4.188 2.711-22.37 16.753-40.237 8.037-14.429-7.045-18.496-24.621-18.763-25.856-.556-2.542-2.106-10.071 1.211-18.738.581-1.525 3.171-7.917 9.514-13.146 7.191-5.956 19.659-11.064 30.941-6.706 9.926 3.825 14.695 13.339 16.971 17.867 2.784 5.544 3.341 9.853 10.289 26.679.387.968.726 1.767.944 2.3zm109.138-8.038c-5.956 9.757-13.703 17.31-24.21 21.789-10.507 4.479-21.522 6.077-32.683 3.631-11.064-2.445-20.167-8.57-27.841-16.946a82.96 82.96 0 0114.332-12.59c14.816-10.265 24.645-13.944 33.627-15.034l-17.043-2.421 20.675-10.894-45.999 8.473c4.769.993 5.423 2.3 10.192 3.293a78.506 78.506 0 00-11.015 5.568 81.605 81.605 0 00-13.8 10.507l-3.607-6.537c-5.592-10.265-9.151-26.364-9.151-26.388a99.633 99.633 0 017.989-11.669 103.22 103.22 0 017.215-8.135c5.156-5.229 13.194-13.34 25.952-18.932 3.68-1.622 8.764-3.777 15.882-4.673 5.326-.653 11.258-.484 18.012 1.041 10.943 3.075 20.651 9.321 27.842 18.158 4.139 5.084 7.238 10.483 9.296 16.341.702 2.01 2.421 7.312 2.809 13.921.895 14.744-5.351 26.437-8.474 31.497z" fill="url(#paint0_linear_360_825)"/><path fill-rule="evenodd" clip-rule="evenodd" d="M220.691 591.087c5.036-4.818 10.434-10.338 15.47-15.155 6.319 7.166 13.291 10.797 18.593 13.242 25.881 11.96 60.331 11.742 89.068-23.096-3.316 9.079-11.887 29.246-38.082 41.375-20.675 9.587-39.68 6.367-45.321 5.326-5.011-.92-16.753-3.22-28.809-11.863a67.757 67.757 0 01-10.967-9.878l.048.049z" fill="url(#paint1_linear_360_825)"/><path fill-rule="evenodd" clip-rule="evenodd" d="M320.991 515.048c1.792 3.196 7.287 13.872 5.714 29.197-.92 8.813-4.261 15.785-5.375 18.085a55.56 55.56 0 01-6.028 10.023c-2.034 2.711-5.447 6.827-11.742 11.282-1.549 1.113-5.229 3.534-12.42 5.931-10.192 3.414-18.714 4.794-24.451 4.043 2.977.63 6.536 1.162 10.603 1.211.146 0 3.293 0 6.295-.267 19.295-1.912 34.547-15.082 34.547-15.082.243-.218 3.051-2.639 5.399-5.254 15.083-16.753 26.147-57.232 5.52-83.935-8.473-10.968-19.223-15.664-24.549-17.988-21.546-9.418-41.423-5.036-47.717-3.535-36.654 8.643-53.795 41.617-56.433 46.894a54.215 54.215 0 017.045 6.174 54.94 54.94 0 016.585 8.352c3.123-5.156 23.265-40.503 55.997-43.505 3.341-.314 12.589 1.38 22.176 3.753 14.889 3.704 26.558 20.506 28.858 24.621h-.024z" fill="url(#paint2_linear_360_825)"/><path fill-rule="evenodd" clip-rule="evenodd" d="M267.314 545.995c7.602.968 9.718 1.309 22.017 2.568-32.877 6.004-48.425 22.938-58.859 33.3-2.203 2.203-3.97 4.14-6.561 6.561 0 0-1.743 1.598-3.607 3.196-7.602 6.464-15.954 13.533-26.123 17.746-2.977 1.234-11.233 4.527-21.788 4.236-21.596-.581-35.758-15.712-36.92-16.995-15.858-17.455-16.584-43.408-7.651-60.573 4.915-9.466 12.25-15.204 15.567-17.528 4.092-2.857 12.856-7.917 22.104-6.972.314.024-.654-.097 0 0 7.892 1.331 23.895 6.415 27.236 8.328 6.609 3.728 9.175 6.875 9.95 7.868a25.922 25.922 0 014.358 8.498c.871 3.026.726 4.745.823 10.579.121 6.973.169 10.435.629 14.308 0 0 .218 1.865 2.494 13.897a123.639 123.639 0 01-5.35-12.129 115.476 115.476 0 01-3.535-10.774c-.968-3.123-3.22-8.885-8.546-13.944-1.428-1.356-11.984-10.677-26.849-8.474-10.894 1.622-19.368 9.66-22.999 19.198-5.229 13.727.194 25.881 2.155 29.246 1.258 2.155 6.754 11.015 17.406 15.131 21.91 8.498 45.128-15.93 52.851-21.401 22.999-21.789 34.111-24.017 34.111-24.017l-13.315-3.631c15.736-3.631 76.197-18.489 78.473-19.506l-48.071 21.284z" fill="url(#paint3_linear_360_825)"/><path fill-rule="evenodd" clip-rule="evenodd" d="M228.29 561.188c-.145-.242-.799-.992-1.065-1.476-8.74-13.534-9.03-20.748-13.533-29.536-4.213-8.232-10.774-13.05-13.606-14.914-15.519-10.144-34.151-6.687-38.823-5.597-6.44 1.525-11.098 4.726-14.245 6.445 4.188-1.114 13.242-2.93 23.798.193 2.445.727 7.844 2.736 13.775 6.949 16.947 12.104 18.158 30.262 18.158 30.262s.024.363.097 1.041a125.263 125.263 0 003.098 9.418 119.013 119.013 0 005.254 11.887c3.147-2.639 5.108-3.995 7.747-6.222 2.736-2.325 5.326-4.6 7.747-6.852l1.598-1.598z" fill="url(#paint4_linear_360_825)"/><path fill-rule="evenodd" clip-rule="evenodd" d="M200.428 515.434c2.348 1.767 5.205 4.212 7.989 7.553a47.088 47.088 0 016.803 10.774c2.857-6.755 8.013-16.584 17.286-26.026 5.108-4.914 10.652-8.618 12.371-9.756 5.181-3.341 16.947-9.684 32.683-9.684 12.226.557 23.387 5.181 27.842 8.473-2.179-2.058-27.309-26.413-59.726-18.762-18.424 4.357-29.536 15.688-33.603 20.118a69.92 69.92 0 00-11.645 17.334v-.024z" fill="url(#paint5_linear_360_825)"/><path d="M141.983 567.071c.823 4.285 3.729 16.1 14.308 24.864 12.299 10.192 26.873 9.369 33.144 9.054 23.072-1.162 38.251-16.027 42.488-20.505a170.603 170.603 0 01-9.273 9.345c-4.89 4.551-9.974 9.296-16.995 13.678-1.791 1.114-8.667 5.472-15.76 7.554-15.107 4.575-34.04 3.922-50.188-10.12-14.84-12.928-17.116-30.432-17.527-36.412-1.066-15.082 4.503-27.672 8.885-33.724 3.534-4.89 8.037-8.619 8.037-8.619s3.68-3.123 7.554-5.108c11.596-5.956 39.68-.944 48.71 15.034 1.719 3.027 5.375 10.072 6.9 18.424.387 2.13.605 3.898.726 5.108-.533-2.179-4.091-15.712-17.286-22.394-2.421-1.235-11.088-5.423-21.668-2.566-11.185 3.026-16.559 11.814-18.012 14.235-5.616 9.442-4.696 18.811-4.043 22.128v.024z" fill="url(#paint6_linear_360_825)"/><path d="M146.996 516.084s-8.934 3.922-16.39 15.204c-1.066 1.598-2.034 3.317-2.034 3.317a50.59 50.59 0 00-3.414 7.529c-4.43 12.226-3.316 23.532-1.936 30.456.387-4.6 2.106-17.14 12.008-28.204 2.348-2.639 9.224-10.12 21.062-13.509 3.027-.872 12.88-3.559 24.041.096 5.52 1.816 8.522 4.092 9.345 4.697 6.101 4.576 9.538 10.507 10.7 12.88a38.305 38.305 0 012.785 7.456c-.194-4.139-1.38-22.006-15.059-32.368-2.276-2.324-9.611-7.408-13.315-8.474-7.215-2.082-18.279-3.244-27.769.92h-.024z" fill="url(#paint7_linear_360_825)"/><path d="M656.958 524.907c-1.577 0-3.094-.364-5.035-2.184l-24.875-22.327v23.843h-11.405v-33.671c0-5.4 3.276-7.584 6.855-7.584 1.517 0 3.034.364 5.036 2.184l24.874 22.327v-23.843h11.467v33.61c0 5.4-3.277 7.645-6.917 7.645zm-79.942-11.098h34.52l-8.069 10.435h-39.071v-40.588h47.019l-8.13 10.557h-26.269v4.853h32.154l-7.219 9.222h-24.935v5.521zm-51.426 0h34.521l-8.069 10.435h-39.071v-40.588h47.018l-8.129 10.557h-26.27v4.853h32.155l-7.22 9.222H525.59v5.521zm-24.598 2.548l7.462 7.887h-16.805l-9.04-10.738h-19.293v10.738h-12.558v-20.749h35.309c3.883 0 6.917-1.759 6.917-4.55 0-3.155-2.609-4.732-6.917-4.732h-35.309l8.19-10.557h26.088c9.222 0 20.87 2.912 20.87 14.5 0 6.31-3.943 11.527-10.617 12.862 1.395 1.031 2.912 2.488 5.703 5.339zm-90.819-8.433l7.523-9.04h25.966v25.36h-27.847c-14.075 0-24.45-8.918-24.45-20.688 0-11.891 10.375-19.9 24.45-19.9h29.06l-8.129 10.557h-20.931c-6.795 0-11.952 4.125-11.952 9.889 0 5.885 4.975 9.707 11.952 9.707h15.349v-5.885h-20.991z" fill="#09C388"/><path d="M945.225 555.91h15.774l-24.086 27.18v13.408h-12.619v-13.469l-24.753-27.119h16.138l9.707 11.285c1.274 1.456 4.672 5.157 5.521 6.37.789-1.153 2.184-2.912 5.096-6.431l9.222-11.224zm-83.054 24.26l7.523-9.04h25.966v25.36h-27.847c-14.075 0-24.45-8.918-24.45-20.688 0-11.891 10.375-19.9 24.45-19.9h29.061l-8.13 10.557h-20.931c-6.795 0-11.952 4.125-11.952 9.889 0 5.885 4.975 9.707 11.952 9.707h15.349v-5.885h-20.991zm-53.543-24.932c19.718 0 29.667 6.431 29.667 20.931s-9.949 20.992-29.667 20.992c-19.778 0-29.667-6.492-29.667-20.992s9.889-20.931 29.667-20.931zm0 31.366c12.619 0 17.17-1.698 17.17-10.435 0-8.736-4.551-10.374-17.17-10.374-12.619 0-17.169 1.638-17.169 10.374 0 8.737 4.55 10.435 17.169 10.435zm-62.4-.549h31.427l-8.13 10.435H733.67v-40.588h12.558v30.153zm-48.569-30.817c19.718 0 29.668 6.431 29.668 20.931s-9.95 20.992-29.668 20.992c-19.778 0-29.667-6.492-29.667-20.992s9.889-20.931 29.667-20.931zm0 31.366c12.62 0 17.17-1.698 17.17-10.435 0-8.736-4.55-10.374-17.17-10.374-12.619 0-17.169 1.638-17.169 10.374 0 8.737 4.55 10.435 17.169 10.435zm-42.716 10.557c-1.578 0-3.094-.364-5.036-2.184l-24.874-22.327v23.843h-11.406v-33.671c0-5.4 3.276-7.584 6.856-7.584 1.516 0 3.033.364 5.035 2.184l24.875 22.327v-23.843h11.466v33.61c0 5.4-3.276 7.645-6.916 7.645zm-48.865-41.251v40.588H593.58v-15.653h-24.146v15.653h-12.62V555.91h12.62v14.379h24.146V555.91h12.498zm-82.079 30.145h28.453l-8.069 10.435h-20.384c-14.076 0-24.45-8.918-24.45-20.688 0-11.891 10.374-19.9 24.45-19.9h28.453l-8.069 10.557h-20.384c-6.795 0-11.892 4.065-11.892 9.889 0 5.763 5.036 9.707 11.892 9.707zm-61.979.008h34.52l-8.069 10.435H449.4V555.91h47.019l-8.13 10.557H462.02v4.853h32.154l-7.219 9.222H462.02v5.521zm-62.525-30.153h46.109l-8.13 10.557h-14.5v30.031h-12.559v-30.031h-19.05l8.13-10.557z" fill="#000155"/><defs><linearGradient id="paint0_linear_360_825" x1="315.566" y1="483.355" x2="227.2" y2="562.449" gradientUnits="userSpaceOnUse"><stop stop-color="#E9AF05"/><stop offset=".36" stop-color="#FFE139"/><stop offset="1" stop-color="#FFE601"/></linearGradient><linearGradient id="paint1_linear_360_825" x1="231.804" y1="614.28" x2="242.698" y2="565.86" gradientUnits="userSpaceOnUse"><stop stop-color="#00DB5B"/><stop offset="1" stop-color="#0B43B6"/></linearGradient><linearGradient id="paint2_linear_360_825" x1="264.97" y1="448.35" x2="271.022" y2="528.243" gradientUnits="userSpaceOnUse"><stop stop-color="#E9B006"/><stop offset="1" stop-color="#FFED6D"/></linearGradient><linearGradient id="paint3_linear_360_825" x1="133.754" y1="590.07" x2="200.161" y2="545.427" gradientUnits="userSpaceOnUse"><stop stop-color="#0E00D4"/><stop offset="1" stop-color="#02EE67"/></linearGradient><linearGradient id="paint4_linear_360_825" x1="228.484" y1="584.697" x2="178.539" y2="512.6" gradientUnits="userSpaceOnUse"><stop stop-color="#3183CE"/><stop offset="1" stop-color="#01F757"/></linearGradient><linearGradient id="paint5_linear_360_825" x1="251.147" y1="485.462" x2="254.779" y2="527.829" gradientUnits="userSpaceOnUse"><stop stop-color="#FFF08A"/><stop offset="1" stop-color="#DABE03"/></linearGradient><linearGradient id="paint6_linear_360_825" x1="141.015" y1="522.283" x2="254.123" y2="625.441" gradientUnits="userSpaceOnUse"><stop stop-color="#326FE4"/><stop offset=".658" stop-color="#29ED59"/></linearGradient><linearGradient id="paint7_linear_360_825" x1="111.964" y1="534.387" x2="222.119" y2="573.123" gradientUnits="userSpaceOnUse"><stop stop-color="#32EF67"/><stop offset="1" stop-color="#308CC5"/></linearGradient></defs></svg>