<svg width="24" height="24" fill="none" xmlns="http://www.w3.org/2000/svg"><g clip-path="url(#clip0_1_224)" fill="#EFBE4C"><path d="M19 2h-1V1a1 1 0 00-2 0v1H8V1a1 1 0 00-2 0v1H5a5.006 5.006 0 00-5 5v12a5.006 5.006 0 005 5h14a5.006 5.006 0 005-5V7a5.006 5.006 0 00-5-5zM2 7a3 3 0 013-3h14a3 3 0 013 3v1H2V7zm17 15H5a3 3 0 01-3-3v-9h20v9a3 3 0 01-3 3z"/><path d="M12 16.5a1.5 1.5 0 100-3 1.5 1.5 0 000 3zm-5 0a1.5 1.5 0 100-3 1.5 1.5 0 000 3zm10 0a1.5 1.5 0 100-3 1.5 1.5 0 000 3z"/></g><defs><clipPath id="clip0_1_224"><path fill="#fff" d="M0 0h24v24H0z"/></clipPath></defs></svg>