<svg width="24" height="24" fill="none" xmlns="http://www.w3.org/2000/svg"><g clip-path="url(#clip0_1_235)"><path d="M24 8.5A1.5 1.5 0 0022.5 7s-.584 0-.625.008a29.719 29.719 0 00-2.562-3.959 3.884 3.884 0 00-1.978-1.357c-1.761-.856-8.909-.856-10.67 0A3.884 3.884 0 004.687 3.05a29.709 29.709 0 00-2.562 3.959C2.084 7 1.5 7 1.5 7A1.5 1.5 0 000 8.5V15a4 4 0 002 3.463V20a3 3 0 106 0v-1h8v1a3 3 0 106 0v-1.537A3.999 3.999 0 0024 15V8.5zM6.274 4.266a1.9 1.9 0 01.967-.659c1.519-.751 8-.751 9.518 0a1.9 1.9 0 01.967.659 28.62 28.62 0 013.72 6.49 65.427 65.427 0 00-18.892 0 28.618 28.618 0 013.72-6.49zM6 20a1 1 0 11-2 0v-1h2v1zm14 0a1 1 0 01-2 0v-1h2v1zm0-3H4a2 2 0 01-2-2v-2.143A75.86 75.86 0 0112 12c3.349.065 6.69.35 10 .857V15a2 2 0 01-2 2zM6 15a1 1 0 11-2 0 1 1 0 012 0zm14 0a1 1 0 11-2 0 1 1 0 012 0z" fill="#EFBE4C"/></g><defs><clipPath id="clip0_1_235"><path fill="#fff" d="M0 0h24v24H0z"/></clipPath></defs></svg>