<svg width="24" height="24" fill="none" xmlns="http://www.w3.org/2000/svg"><g clip-path="url(#clip0_1_231)"><path d="M24 6.945a5.963 5.963 0 00-1.755-4.117L19.707.293a1 1 0 00-1.414 1.414L20 3.414V6a2 2 0 002 2v10a1 1 0 01-2 0v-1a3 3 0 00-3-3h-1V5a5.006 5.006 0 00-5-5H5a5.006 5.006 0 00-5 5v14a5.006 5.006 0 005 5h6a5.006 5.006 0 005-5v-3h1a1 1 0 011 1v1a3 3 0 006 0V6.945zM5 2h6a3 3 0 013 3v4H2V5a3 3 0 013-3zm9 17a3 3 0 01-3 3H5a3 3 0 01-3-3v-8h12v8z" fill="#EFBE4C"/></g><defs><clipPath id="clip0_1_231"><path fill="#fff" d="M0 0h24v24H0z"/></clipPath></defs></svg>