<svg width="24" height="24" fill="none" xmlns="http://www.w3.org/2000/svg"><g clip-path="url(#clip0_1_239)"><path d="M17.247 10.279a2.498 2.498 0 001.753.709c.635 0 1.27-.236 1.752-.709l1.783-1.744a5.005 5.005 0 000-7.071A4.967 4.967 0 0019 0c-1.335 0-2.591.52-3.536 1.464a5.009 5.009 0 00.008 7.079l1.775 1.736zm-.369-7.4A2.98 2.98 0 0119 2a3 3 0 012.129 5.113l-1.775 1.736a.507.507 0 01-.708 0l-1.767-1.728a3.005 3.005 0 010-4.243l-.001.001zM4 22a2 2 0 11-3.999.001A2 2 0 014 22zm10.5-6a2 2 0 11-3.999.001A2 2 0 0114.5 16zM2 13c0-2.206 1.794-4 4-4h7a1 1 0 010 2H6c-1.103 0-2 .897-2 2s.897 2 2 2h2a1 1 0 010 2H6c-2.206 0-4-1.794-4-4zm22 6c0 2.206-1.794 4-4 4H7a1 1 0 010-2h13c1.103 0 2-.897 2-2s-.897-2-2-2h-3a1 1 0 010-2h3c2.206 0 4 1.794 4 4zM20.001 4.787a1 1 0 11-2 0 1 1 0 012 0z" fill="#EFBE4C"/></g><defs><clipPath id="clip0_1_239"><path fill="#fff" d="M0 0h24v24H0z"/></clipPath></defs></svg>