<svg width="80" height="80" fill="none" xmlns="http://www.w3.org/2000/svg"><path d="M64.823 28.86a9.95 9.95 0 00-8.943-5.527H24.12a9.947 9.947 0 00-8.943 5.527L7.557 44.1A40.197 40.197 0 003.333 62v11.333H10V80h16.667v-6.667h26.666V80H70v-6.667h6.667V62a40.197 40.197 0 00-4.224-17.89l-7.62-15.25zm-43.666 3A3.314 3.314 0 0124.12 30h31.76a3.31 3.31 0 012.98 1.843l7.413 14.824H13.727l7.43-14.807zM70 66.667H10V62a33.34 33.34 0 011.15-8.667h5.517v3.334a3.333 3.333 0 006.666 0v-3.334h33.334v3.334a3.333 3.333 0 006.666 0v-3.334h5.517A33.336 33.336 0 0170 62v4.667zm0-53.334h9.387a10.03 10.03 0 01-18.817 0H19.43a10.03 10.03 0 01-18.817 0H10V6.667H.613a10.03 10.03 0 0118.817 0h41.14a10.03 10.03 0 0118.817 0H70v6.666z" fill="#EFBE4C"/></svg>