<svg width="80" height="80" fill="none" xmlns="http://www.w3.org/2000/svg"><g clip-path="url(#clip0_1_40)"><path d="M80 28.333a5 5 0 00-5-5s-1.947 0-2.083.027a99.038 99.038 0 00-8.54-13.197 12.947 12.947 0 00-6.594-4.523c-5.87-2.853-29.696-2.853-35.566 0a12.947 12.947 0 00-6.594 4.523 99.038 99.038 0 00-8.54 13.197C6.947 23.333 5 23.333 5 23.333a5 5 0 00-5 5V50a13.333 13.333 0 006.667 11.543v5.124a10 10 0 0020 0v-3.334h26.666v3.334a10 10 0 0020 0v-5.124A13.334 13.334 0 0080 50V28.333zM20.913 14.22a6.334 6.334 0 013.224-2.197c5.063-2.503 26.666-2.503 31.726 0a6.334 6.334 0 013.224 2.197 95.395 95.395 0 0112.4 21.633 218.086 218.086 0 00-62.974 0 95.393 95.393 0 0112.4-21.633zM20 66.667a3.333 3.333 0 01-6.667 0v-3.334H20v3.334zm46.667 0a3.333 3.333 0 01-6.667 0v-3.334h6.667v3.334zm0-10H13.333A6.667 6.667 0 016.667 50v-7.143A252.843 252.843 0 0140 40a252.842 252.842 0 0133.333 2.857V50a6.667 6.667 0 01-6.666 6.667zM20 50a3.333 3.333 0 11-6.666 0A3.333 3.333 0 0120 50zm46.667 0A3.333 3.333 0 1160 50a3.333 3.333 0 016.667 0z" fill="#EFBE4C"/></g><defs><clipPath id="clip0_1_40"><path fill="#fff" d="M0 0h80v80H0z"/></clipPath></defs></svg>