<svg width="100" height="100" viewBox="0 0 1000 1000" xmlns="http://www.w3.org/2000/svg" fill="#efbe4c"><path d="M789.373 376.216c-7.82-7.56-17.27-12.5-27.33-14.36l-1.136-.21a9.257 9.257 0 01-7.594-9.103 7.438 7.438 0 00-7.438-7.438 69.46 69.46 0 00-16.868 2.08l-23.279 5.828c-144.527-18.666-240.265.539-271.215 8.443-6.39 1.63-12.64 3.88-18.71 6.71l-110.95 51.74c-6.83 3.18-13.89 5.62-21.11 7.3l-49.27 11.41c-36.59 8.47-66.88 38.14-80.27 78.61l-2.42 39.41c-1.57 25.72 15.95 47.59 38.14 47.59h22.23c8.97 29.34 36.26 50.67 68.54 50.67 32.27 0 59.56-21.33 68.53-50.67h311.76c8.97 29.34 36.26 50.67 68.53 50.67s59.56-21.33 68.54-50.67h10.19c19.55 0 35.96-17.141 38.02-39.74 2.98-32.78 4.22-79.06-7.1-111.82-12.509-36.2-35.259-62.431-49.79-76.45zm-603.39 177.09c-4.97 0-9-6.561-9-14.66 0-8.101 4.03-14.67 9-14.67s9 6.569 9 14.67c0 8.099-4.029 14.66-9 14.66zm11.26-45.241c-5.67 1.56-10.5-4.271-7.97-9.58 4.68-9.82 13.02-22.54 26.37-28.26 16.39-7.02 29.83-4.181 36.37-1.87 2.83 1.01 4.69 3.76 4.51 6.76-.33 5.65-2.76 14.71-14.21 19.11-11.06 4.26-31.64 10.14-45.07 13.84zm125.11 96.161c-7.7 15.22-23.48 25.67-41.66 25.67-18.19 0-33.97-10.45-41.67-25.67-3.2-6.311-5-13.45-5-21 0-25.73 20.93-46.67 46.67-46.67 25.73 0 46.66 20.939 46.66 46.67 0 7.549-1.8 14.689-5 21zm71.241-166.271a7.675 7.675 0 01-7.13 4.77h-71.41c.12-.061.24-.11.36-.16l94.47-44.05-16.29 39.44zm132.219 45.441h-27.67c-4.69 0-8.5-3.811-8.5-8.5 0-2.351.95-4.47 2.49-6.01a8.464 8.464 0 016.01-2.49h27.67a8.5 8.5 0 110 17zm15.051-43.031l-82.62 1.83c-2.61.08-4.97-1.14-6.48-3.27-1.5-2.141-1.83-4.761-.9-7.2l20.02-52.38c20.06-3.48 47.74-7.051 82.17-8.53l-12.19 69.55zm89-1.96l-71.67 1.58 12.21-69.71c5.25-.11 10.61-.17 16.12-.17 17.28 0 34.84.55 52.62 1.64-3.261 24.78-6.85 50.71-9.28 66.66zm26.269-65.45a958.87 958.87 0 0144.95 4.681l31.28 34.25a7.648 7.648 0 011.88 6.67 7.68 7.68 0 01-4.22 5.489l-24.83 11.99a7.5 7.5 0 01-3.18.771l-54.9 1.21c2.63-17.29 6.02-42.261 9.02-65.061zm5.35 110.441a8.5 8.5 0 01-8.5-8.5c0-2.351.95-4.47 2.49-6.01a8.464 8.464 0 016.01-2.49h27.66c4.7 0 8.5 3.8 8.5 8.5a8.5 8.5 0 01-8.5 8.5h-27.66zm109.701 120.83c-7.7 15.22-23.48 25.67-41.67 25.67-18.18 0-33.96-10.45-41.66-25.67-3.2-6.311-5-13.45-5-21 0-25.73 20.93-46.67 46.66-46.67 25.74 0 46.67 20.939 46.67 46.67a46.329 46.329 0 01-5 21zm51.72-78.541c-2.45 1.74-5.77 1.62-8.12-.25-5.43-4.33-14.96-14.21-17.68-31.83-2.22-14.37 4.15-28.17 10.01-37.34 3.16-4.96 10.66-3.96 12.34 1.68 3.98 13.36 9.88 33.92 12.13 45.56 2.33 12.051-4.071 18.91-8.68 22.18z"/><path d="M280.693 556.226c-14.92 0-27.01 12.09-27.01 27 0 8.479 3.91 16.05 10.04 21 4.63 3.76 10.54 6 16.97 6s12.33-2.24 16.96-6c6.13-4.95 10.04-12.521 10.04-21 0-14.911-12.09-27-27-27zm448.82 0c-14.91 0-27 12.09-27 27 0 8.479 3.91 16.05 10.04 21 4.63 3.76 10.53 6 16.96 6 6.43 0 12.34-2.24 16.97-6 6.12-4.95 10.03-12.521 10.03-21 0-14.911-12.079-27-27-27z"/></svg>