<!DOCTYPE svg PUBLIC "-//W3C//DTD SVG 1.1//EN" "http://www.w3.org/Graphics/SVG/1.1/DTD/svg11.dtd">
<!-- Uploaded to: SVG Repo, www.svgrepo.com, Transformed by: SVG Repo Mixer Tools -->
<svg fill="#000000" height="100px" width="100px" version="1.1" id="Layer_1" xmlns="http://www.w3.org/2000/svg" xmlns:xlink="http://www.w3.org/1999/xlink" viewBox="0 0 512.001 512.001" xml:space="preserve" stroke="#000000">
<g id="SVGRepo_bgCarrier" stroke-width="0"/>
<g id="SVGRepo_tracerCarrier" stroke-linecap="round" stroke-linejoin="round"/>
<g id="SVGRepo_iconCarrier"> <g> <g> <path d="M189.035,166.712c-12.308,0-22.322,10.014-22.322,22.322s10.014,22.322,22.322,22.322s22.322-10.015,22.322-22.322 C211.357,176.726,201.343,166.712,189.035,166.712z"/> </g> </g> <g> <g> <path d="M322.967,300.644c-12.308,0-22.322,10.014-22.322,22.322c0,12.308,10.014,22.322,22.322,22.322 c12.308,0,22.322-10.014,22.322-22.322C345.289,310.658,335.274,300.644,322.967,300.644z"/> </g> </g> <g> <g> <path d="M507.154,244.22l-43.447-43.875l15.689-59.721c2.333-8.881-2.923-17.984-11.78-20.403l-59.564-16.273l-16.273-59.564 c-2.42-8.857-11.52-14.114-20.403-11.78l-59.72,15.69L267.78,4.846c-6.525-6.461-17.036-6.461-23.56,0l-43.875,43.448 l-59.721-15.689c-8.883-2.334-17.983,2.923-20.403,11.78l-16.273,59.564l-59.564,16.273c-8.857,2.42-14.113,11.523-11.78,20.403 l15.689,59.721L4.846,244.22c-6.461,6.525-6.461,17.036,0,23.56l43.448,43.875l-15.689,59.721 c-2.333,8.881,2.923,17.984,11.78,20.403l59.564,16.273l16.273,59.564c2.42,8.857,11.519,14.114,20.403,11.78l59.721-15.689 l43.875,43.448c3.262,3.231,7.521,4.846,11.78,4.846c4.259,0,8.518-1.615,11.78-4.846l43.875-43.448l59.721,15.689 c8.882,2.331,17.983-2.923,20.403-11.78l16.273-59.564l59.564-16.273c8.857-2.42,14.113-11.523,11.78-20.403l-15.689-59.721 l43.447-43.875C513.615,261.256,513.615,250.745,507.154,244.22z M133.23,189.034c0-30.771,25.034-55.805,55.805-55.805 s55.805,25.034,55.805,55.805s-25.034,55.805-55.805,55.805S133.23,219.805,133.23,189.034z M189.711,345.964 c-3.269,3.269-7.554,4.904-11.837,4.904c-4.284,0-8.569-1.634-11.837-4.904c-6.538-6.538-6.538-17.138,0-23.676L322.29,166.035 c6.537-6.538,17.138-6.538,23.676,0c6.538,6.538,6.538,17.138,0,23.676L189.711,345.964z M322.967,378.771 c-30.771,0-55.805-25.034-55.805-55.805c0-30.771,25.034-55.805,55.805-55.805c30.771,0,55.805,25.034,55.805,55.805 C378.772,353.737,353.738,378.771,322.967,378.771z"/> </g> </g> </g>
</svg>