<svg width="80" height="80" fill="none" xmlns="http://www.w3.org/2000/svg"><path d="M68.333 20h-6.666C55.233 20 50 25.233 50 31.667V45c0 4.637 2.74 8.617 6.667 10.497v21.17a3.334 3.334 0 006.666 0v-20h3.334v20a3.334 3.334 0 006.666 0v-21.17C77.26 53.617 80 49.637 80 45V31.667C80 25.233 74.767 20 68.333 20zM56.667 8.333A8.332 8.332 0 0165 0a8.332 8.332 0 018.333 8.333A8.332 8.332 0 0165 16.667a8.332 8.332 0 01-8.333-8.334zM40 8.333A8.332 8.332 0 0148.333 0c1.34 0 2.59.347 3.714.91C50.78 3.107 50 5.62 50 8.333c0 2.714.78 5.227 2.05 7.424-1.123.563-2.373.91-3.717.91A8.332 8.332 0 0140 8.333zm-16.667 0A8.332 8.332 0 0131.667 0c1.34 0 2.59.347 3.713.91-1.267 2.197-2.047 4.71-2.047 7.423 0 2.714.78 5.227 2.05 7.424-1.123.563-2.373.91-3.716.91a8.332 8.332 0 01-8.334-8.334zm-16.666 0A8.332 8.332 0 0115 0c1.34 0 2.59.347 3.713.91-1.266 2.197-2.046 4.71-2.046 7.423 0 2.714.78 5.227 2.05 7.424-1.124.563-2.374.91-3.717.91a8.332 8.332 0 01-8.333-8.334zM47.537 20a18.256 18.256 0 00-4.204 11.667v41.666A3.335 3.335 0 0140 76.667a3.335 3.335 0 01-3.333-3.334v-20.17A11.741 11.741 0 0133.333 45V31.667C33.333 25.233 38.567 20 45 20h2.537zM30.87 20c-2.623 3.173-4.203 3.907-4.203 8.333v38.334a3.335 3.335 0 01-6.667 0V49.83a11.741 11.741 0 01-3.333-8.163v-10C16.667 25.233 21.9 20 28.333 20h2.537zm-16.667 0C11.58 23.173 10 23.907 10 28.333V60a3.335 3.335 0 01-6.667 0V46.497A11.742 11.742 0 010 38.333v-6.666C0 25.233 5.233 20 11.667 20h2.536z" fill="#EFBE4C"/></svg>