<svg width="80" height="80" viewBox="0 0 80 80" fill="none" xmlns="http://www.w3.org/2000/svg">
<path d="M76.6667 60H26.6667C21.1533 60 16.6667 55.5133 16.6667 50V13.3333C16.6667 5.98 10.6867 0 3.33333 0C1.49 0 0 1.49333 0 3.33333C0 5.17333 1.49 6.66667 3.33333 6.66667C7.01 6.66667 10 9.65667 10 13.3333V50C10 56.82 14.12 62.6967 20 65.2733V68.3333C20 74.7667 25.2333 80 31.6667 80C38.1 80 43.3333 74.7667 43.3333 68.3333V66.6667H53.3333V68.3333C53.3333 74.7667 58.5667 80 65 80C71.4333 80 76.6667 74.7667 76.6667 68.3333V66.6667C78.51 66.6667 80 65.1767 80 63.3333C80 61.49 78.51 60 76.6667 60ZM36.6667 68.3333C36.6667 71.09 34.4233 73.3333 31.6667 73.3333C28.91 73.3333 26.6667 71.09 26.6667 68.3333V66.6667H36.6667V68.3333ZM70 68.3333C70 71.09 67.7567 73.3333 65 73.3333C62.2433 73.3333 60 71.09 60 68.3333V66.6667H70V68.3333ZM36.6667 53.3333H63.3333C70.6867 53.3333 76.6667 47.3533 76.6667 40V23.3333C76.6667 15.98 70.6867 10 63.3333 10H36.6667C29.3133 10 23.3333 15.98 23.3333 23.3333V40C23.3333 47.3533 29.3133 53.3333 36.6667 53.3333ZM46.6667 16.6667H53.3333V26.6667H46.6667V16.6667ZM30 23.3333C30 19.6567 32.99 16.6667 36.6667 16.6667H40V26.6667C40 30.3433 42.99 33.3333 46.6667 33.3333H53.3333C57.01 33.3333 60 30.3433 60 26.6667V16.6667H63.3333C67.01 16.6667 70 19.6567 70 23.3333V40C70 43.6767 67.01 46.6667 63.3333 46.6667H36.6667C32.99 46.6667 30 43.6767 30 40V23.3333Z" fill="#EFBE4C"/>
</svg>
