<svg width="80" height="80" fill="none" xmlns="http://www.w3.org/2000/svg"><path d="M76.667 60h-50c-5.514 0-10-4.487-10-10V13.333C16.667 5.98 10.687 0 3.333 0A3.332 3.332 0 000 3.333c0 1.84 1.49 3.334 3.333 3.334A6.673 6.673 0 0110 13.333V50c0 6.82 4.12 12.697 10 15.273v3.06C20 74.767 25.233 80 31.667 80c6.433 0 11.666-5.233 11.666-11.667v-1.666h10v1.666C53.333 74.767 58.567 80 65 80s11.667-5.233 11.667-11.667v-1.666A3.33 3.33 0 0080 63.333 3.33 3.33 0 0076.667 60zm-40 8.333c0 2.757-2.244 5-5 5-2.757 0-5-2.243-5-5v-1.666h10v1.666zm33.333 0c0 2.757-2.243 5-5 5s-5-2.243-5-5v-1.666h10v1.666zm-33.333-15h26.666c7.354 0 13.334-5.98 13.334-13.333V23.333C76.667 15.98 70.687 10 63.333 10H36.667c-7.354 0-13.334 5.98-13.334 13.333V40c0 7.353 5.98 13.333 13.334 13.333zm10-36.666h6.666v10h-6.666v-10zM30 23.333a6.673 6.673 0 016.667-6.666H40v10a6.673 6.673 0 006.667 6.666h6.666A6.673 6.673 0 0060 26.667v-10h3.333A6.673 6.673 0 0170 23.333V40a6.673 6.673 0 01-6.667 6.667H36.667A6.673 6.673 0 0130 40V23.333z" fill="#EFBE4C"/></svg>