<svg width="80" height="80" fill="none" xmlns="http://www.w3.org/2000/svg"><g clip-path="url(#clip0_1_167)" fill="#EFBE4C"><path d="M61.937 7.133L41.053.17a3.333 3.333 0 00-2.106 0L18.063 7.133a16.643 16.643 0 00-11.396 15.81V40c0 25.21 30.666 39.133 31.98 39.713a3.333 3.333 0 002.706 0c1.314-.58 31.98-14.503 31.98-39.713V22.943a16.643 16.643 0 00-11.396-15.81zM66.667 40c0 18.183-21.064 30.11-26.667 32.963C34.39 70.12 13.333 58.23 13.333 40V22.943a10 10 0 016.84-9.486L40 6.847l19.827 6.61a10 10 0 016.84 9.486V40z"/><path d="M51 27.667l-13.96 14-7.48-7.8a3.333 3.333 0 10-4.803 4.62l7.686 8a6.242 6.242 0 004.483 2h.11a6.243 6.243 0 004.45-1.844l14.24-14.24A3.345 3.345 0 1051 27.667z"/></g><defs><clipPath id="clip0_1_167"><path fill="#fff" d="M0 0h80v80H0z"/></clipPath></defs></svg>