<svg width="100" height="100" viewBox="0 0 1000 1000" xmlns="http://www.w3.org/2000/svg" fill="#efbe4c"><path d="M164.651 575.269c.07.03.139.05.209.05h37.181c7.26 24.678 30.071 42.683 57.092 42.683 27.022 0 49.833-18.004 57.082-42.683h349.077c7.25 24.678 30.061 42.683 57.082 42.683 27.022 0 49.833-18.004 57.092-42.683h39.564c10.139 0 18.541-7.875 19.206-18.005l2.433-37.211a19.405 19.405 0 00-.923-7.269l-9.613-29.227 4.995-27.201c1.092-5.948-2.582-11.728-8.421-13.277l-14.141-3.745-.005-.001 6.573-24.493 5.506-.755c14.735-2.022 25.042-15.605 23.021-30.341a2.079 2.079 0 00-2.342-1.777l-36.194 4.966c-14.735 2.022-25.042 15.605-23.021 30.341a2.078 2.078 0 002.342 1.777l14.32-1.964-4.937 18.396a1124.137 1124.137 0 00-349.523-32.652 100.005 100.005 0 00-19.633 3.247 98.697 98.697 0 00-18.591 7.121l-90.191 45.364a99.538 99.538 0 01-25.562 8.739l-83.101 16.197a53.043 53.043 0 00-32.742 20.875l-13.734 18.908a19.955 19.955 0 00-12.662 18.571v14.479a20.477 20.477 0 0012.561 18.887zm624.507-72.434l3.843-9.901a4.355 4.355 0 012.642-2.533l16.783-5.76a4.347 4.347 0 015.621 3.039l3.814 14.996c.685 2.701-1.311 5.332-4.092 5.412l-24.45.665c-3.099.09-5.293-3.019-4.161-5.918zm-32.106 55.671a34.4 34.4 0 01-4.37 16.813c-5.919 10.646-17.279 17.856-30.308 17.856-13.019 0-24.38-7.21-30.309-17.856a34.392 34.392 0 01-4.36-16.813c0-19.126 15.552-34.678 34.668-34.678 19.127 0 34.679 15.552 34.679 34.678zM644.158 425.742l37.449 5.343a36.452 36.452 0 0123.407 13.397c1.669 2.095.069 5.174-2.602 4.995l-32.613-2.065a36.495 36.495 0 01-27.131-14.846l-1.43-1.946c-1.618-2.207.219-5.266 2.92-4.878zm-17.616 73.636l-11.51 30.577a36.5 36.5 0 01-22.126 21.62l-2.284.794c-2.582.904-4.965-1.748-3.813-4.22l16.058-34.261a36.493 36.493 0 0119.653-18.462c2.492-.983 4.965 1.45 4.022 3.952zm-295.61-18.53l.109-.06 90.191-45.364a73.775 73.775 0 0128.65-7.766 1100.708 1100.708 0 0169.883-2.225c18.719 0 37.419.487 56.099 1.44a32.854 32.854 0 0119.782 7.935c15.551 13.446 31.302 29.614 29.762 38.869-2.88 17.25-266.622 19.703-285.003 19.852a5.058 5.058 0 01-1.946-.367l-7.11-2.831c-4.181-1.658-4.429-7.467-.417-9.483zm-71.8 42.98c19.117 0 34.669 15.552 34.669 34.678a34.4 34.4 0 01-4.37 16.813c-5.919 10.646-17.28 17.856-30.299 17.856-13.029 0-24.39-7.21-30.318-17.856a34.392 34.392 0 01-4.36-16.813c0-19.126 15.551-34.678 34.678-34.678zm-74.173-2.403l14.271-17.796a1.67 1.67 0 011.022-.596l31.501-5.373c1.718-.297 2.671 1.907 1.291 2.959l-22.642 17.21a1.55 1.55 0 01-.586.288l-23.149 5.958c-1.539.399-2.711-1.408-1.708-2.65z"/><path d="M259.132 571.575c7.22 0 13.069-5.849 13.069-13.069 0-7.22-5.849-13.079-13.069-13.079-7.22 0-13.079 5.859-13.079 13.079 0 7.22 5.859 13.069 13.079 13.069zm463.241 0c7.229 0 13.079-5.849 13.079-13.069 0-7.22-5.849-13.079-13.079-13.079-7.22 0-13.069 5.859-13.069 13.079 0 7.22 5.85 13.069 13.069 13.069z"/></svg>