<svg width="40" height="40" fill="none" xmlns="http://www.w3.org/2000/svg"><path fill-rule="evenodd" clip-rule="evenodd" d="M20 0C8.955 0 0 8.955 0 20s8.955 20 20 20 20-8.955 20-20S31.045 0 20 0zm9.27 13.602c-.3 3.161-1.603 10.836-2.265 14.378-.28 1.5-.833 2.002-1.367 2.05-1.161.107-2.043-.768-3.168-1.505-1.76-1.153-2.755-1.872-4.463-2.998-1.975-1.302-.695-2.017.43-3.185.295-.307 5.411-4.962 5.511-5.384.012-.053.025-.25-.093-.353-.118-.103-.29-.068-.413-.04-.177.04-2.989 1.898-8.437 5.575-.798.548-1.522.815-2.17.802-.713-.015-2.087-.404-3.108-.737-1.252-.407-2.249-.623-2.162-1.313.045-.36.54-.729 1.487-1.105 5.83-2.54 9.718-4.215 11.663-5.025 5.555-2.31 6.708-2.712 7.462-2.725.943-.014 1.17.765 1.093 1.565z" fill="#000"/></svg>