<svg width="80" height="80" fill="none" xmlns="http://www.w3.org/2000/svg"><g clip-path="url(#clip0_1_177)" fill="#EFBE4C"><path d="M30 80H3.333a3.333 3.333 0 010-6.667H30A3.333 3.333 0 1130 80zm-6.667-13.333h-20a3.333 3.333 0 010-6.667h20a3.334 3.334 0 010 6.667zm-6.666-13.334H3.333a3.333 3.333 0 010-6.666h13.334a3.333 3.333 0 110 6.666z"/><path d="M43.333 79.85a3.337 3.337 0 01-.296-6.667A33.333 33.333 0 106.803 36.967a3.334 3.334 0 01-6.64-.6A40 40 0 0180 40a39.78 39.78 0 01-36.367 39.837c-.1.01-.203.013-.3.013z"/><path d="M40 20a3.333 3.333 0 00-3.333 3.333V40c0 .884.351 1.732.976 2.357l10 10a3.333 3.333 0 004.714-4.714l-9.024-9.023V23.333A3.333 3.333 0 0040 20z"/></g><defs><clipPath id="clip0_1_177"><path fill="#fff" d="M0 0h80v80H0z"/></clipPath></defs></svg>