<svg width="80" height="80" viewBox="0 0 80 80" fill="none" xmlns="http://www.w3.org/2000/svg">
<g clip-path="url(#clip0_1_177)">
<path d="M30 80H3.33333C2.44928 80 1.60143 79.6488 0.976311 79.0237C0.35119 78.3986 0 77.5507 0 76.6667C0 75.7826 0.35119 74.9348 0.976311 74.3096C1.60143 73.6845 2.44928 73.3333 3.33333 73.3333H30C30.8841 73.3333 31.7319 73.6845 32.357 74.3096C32.9821 74.9348 33.3333 75.7826 33.3333 76.6667C33.3333 77.5507 32.9821 78.3986 32.357 79.0237C31.7319 79.6488 30.8841 80 30 80Z" fill="#EFBE4C"/>
<path d="M23.3333 66.6667H3.33333C2.44928 66.6667 1.60143 66.3155 0.976311 65.6904C0.35119 65.0652 0 64.2174 0 63.3333C0 62.4493 0.35119 61.6014 0.976311 60.9763C1.60143 60.3512 2.44928 60 3.33333 60H23.3333C24.2174 60 25.0652 60.3512 25.6904 60.9763C26.3155 61.6014 26.6667 62.4493 26.6667 63.3333C26.6667 64.2174 26.3155 65.0652 25.6904 65.6904C25.0652 66.3155 24.2174 66.6667 23.3333 66.6667Z" fill="#EFBE4C"/>
<path d="M16.6667 53.3333H3.33333C2.44928 53.3333 1.60143 52.9821 0.976311 52.357C0.35119 51.7319 0 50.884 0 50C0 49.1159 0.35119 48.2681 0.976311 47.643C1.60143 47.0178 2.44928 46.6667 3.33333 46.6667H16.6667C17.5507 46.6667 18.3986 47.0178 19.0237 47.643C19.6488 48.2681 20 49.1159 20 50C20 50.884 19.6488 51.7319 19.0237 52.357C18.3986 52.9821 17.5507 53.3333 16.6667 53.3333Z" fill="#EFBE4C"/>
<path d="M43.3334 79.85C42.4494 79.8893 41.5859 79.5759 40.933 78.9786C40.28 78.3813 39.8911 77.5491 39.8518 76.665C39.8124 75.7809 40.1259 74.9175 40.7232 74.2645C41.3205 73.6116 42.1527 73.2227 43.0368 73.1833C49.345 72.6061 55.3581 70.2434 60.3719 66.3719C65.3857 62.5004 69.1925 57.2805 71.3465 51.3234C73.5005 45.3663 73.9125 38.9188 72.5343 32.736C71.156 26.5532 68.0445 20.8912 63.5643 16.413C59.0841 11.9348 53.4206 8.82598 47.2372 7.45056C41.0537 6.07515 34.6064 6.49011 28.6503 8.64687C22.6943 10.8036 17.476 14.6129 13.6069 19.6284C9.73767 24.644 7.37773 30.6582 6.80344 36.9667C6.72387 37.8472 6.29778 38.66 5.6189 39.2264C4.94002 39.7927 4.06396 40.0662 3.18344 39.9867C2.30292 39.9071 1.49007 39.481 0.923712 38.8021C0.357352 38.1232 0.0838733 37.2472 0.163438 36.3667C1.09307 26.111 5.94212 16.609 13.7012 9.83855C21.4603 3.0681 31.5316 -0.449118 41.8186 0.0190411C52.1056 0.4872 61.8158 4.90467 68.9279 12.3519C76.0399 19.7991 80.0058 29.7023 80.0001 40C80.0512 49.9945 76.3382 59.642 69.5998 67.0234C62.8613 74.4048 53.5912 78.9792 43.6334 79.8367C43.5334 79.8467 43.4301 79.85 43.3334 79.85Z" fill="#EFBE4C"/>
<path d="M40.0001 20C39.116 20 38.2682 20.3512 37.6431 20.9763C37.0179 21.6014 36.6667 22.4493 36.6667 23.3333V40C36.6669 40.884 37.0183 41.7317 37.6434 42.3567L47.6434 52.3567C48.2721 52.9639 49.1141 53.2998 49.9881 53.2922C50.8621 53.2847 51.6981 52.9341 52.3161 52.3161C52.9342 51.698 53.2847 50.862 53.2923 49.988C53.2999 49.114 52.9639 48.272 52.3567 47.6433L43.3334 38.62V23.3333C43.3334 22.4493 42.9822 21.6014 42.3571 20.9763C41.732 20.3512 40.8841 20 40.0001 20Z" fill="#EFBE4C"/>
</g>
<defs>
<clipPath id="clip0_1_177">
<rect width="80" height="80" fill="white"/>
</clipPath>
</defs>
</svg>
