<svg width="74" height="80" fill="none" xmlns="http://www.w3.org/2000/svg"><path d="M47.333 20a3.333 3.333 0 110 6.667H20.667a3.333 3.333 0 010-6.667h26.666zm25.69 59.023a3.333 3.333 0 01-4.713 0L60.287 71a14.857 14.857 0 01-7.954 2.333 15 15 0 1115-15A14.857 14.857 0 0165 66.287l8.023 8.023a3.333 3.333 0 010 4.713zm-20.69-12.356a8.333 8.333 0 100-16.667 8.333 8.333 0 000 16.667zm-15 6.666h-20a10 10 0 01-10-10V16.667a10 10 0 0110-10h40A3.333 3.333 0 0160.667 10v26.667a3.333 3.333 0 106.666 0V10a10 10 0 00-10-10h-40A16.687 16.687 0 00.667 16.667v46.666A16.687 16.687 0 0017.333 80h20a3.333 3.333 0 100-6.667z" fill="#EFBE4C"/></svg>