<!DOCTYPE svg PUBLIC "-//W3C//DTD SVG 1.1//EN" "http://www.w3.org/Graphics/SVG/1.1/DTD/svg11.dtd">
<!-- Uploaded to: SVG Repo, www.svgrepo.com, Transformed by: SVG Repo Mixer Tools -->
<svg width="100px" height="100px" viewBox="0 0 1000 1000" id="Layer_2" version="1.1" xml:space="preserve" xmlns="http://www.w3.org/2000/svg" xmlns:xlink="http://www.w3.org/1999/xlink" fill="#EFBE4C">
<g id="SVGRepo_bgCarrier" stroke-width="0"/>
<g id="SVGRepo_tracerCarrier" stroke-linecap="round" stroke-linejoin="round"/>
<g id="SVGRepo_iconCarrier">
<path d="M835.039,367.227H369.611c-8.882,0-16.082,7.201-16.082,16.082v5.18 c0,6.856,4.298,12.694,10.34,15.008v158.045h-19.11v-111.31c0-0.027,0.004-0.052,0.004-0.079v-14.744 c0-4.633-4.279-8.082-8.807-7.098l-26.509,5.763c-2.654,0.577-4.765,2.587-5.471,5.21l-1.402,5.208h-20.715 c-10.87,0-21.13,5.03-27.79,13.62l-29.69,38.29c-5.17,6.65-12.55,11.24-20.8,12.91l-19.13,3.89c-12.36,2.5-21.77,12.56-23.47,25.05 l-3.4,25.09c-5.17,2.66-8.7,8.06-8.7,14.28v5.18c0,8.88,7.2,16.08,16.08,16.08h21.54c3.61,19.29,20.53,33.89,40.86,33.89 c20.33,0,37.26-14.6,40.87-33.89h120.89c3.61,19.29,20.54,33.89,40.87,33.89c20.329,0,37.26-14.6,40.87-33.89h13.91 c3.61,19.29,20.53,33.89,40.87,33.89c20.33,0,37.25-14.6,40.86-33.89h81.99c3.61,19.29,20.53,33.89,40.86,33.89 c20.34,0,37.26-14.6,40.87-33.89h13.91c3.61,19.29,20.54,33.89,40.87,33.89c20.33,0,37.26-14.6,40.87-33.89h9.17 c8.15,0,14.89-6.07,15.93-13.94h0.15v-2.14v-5.18V388.527c0-0.013,0.002-0.025,0.002-0.038v-5.18 C851.121,374.427,843.92,367.227,835.039,367.227z M179.979,561.543c-1.01,0.98-2.17,1.54-3.39,1.54c-1.23,0-2.39-0.56-3.4-1.54 c-2.22-2.16-3.73-6.37-3.73-11.21c0-7.04,3.19-12.75,7.13-12.75c3.93,0,7.12,5.71,7.12,12.75 C183.709,555.173,182.199,559.383,179.979,561.543z M245.859,598.883c-3.02,7.24-10.17,12.34-18.5,12.34 c-8.33,0-15.48-5.1-18.5-12.34c-0.99-2.36-1.53-4.96-1.53-7.69c0-2.18,0.35-4.28,1-6.25c2.63-8,10.16-13.78,19.03-13.78 c8.87,0,16.4,5.78,19.03,13.78c0.65,1.97,1,4.07,1,6.25C247.389,593.923,246.849,596.523,245.859,598.883z M327.759,509.863 c0,3.73-3.02,6.75-6.75,6.75h-61.75c-1.9,0-3.68-0.83-4.99-2.21c-2.34-2.48-5.02-4.62-7.94-6.36c-3.45-2.05-4.27-6.7-1.8-9.88 l22.97-29.63c3.42-4.41,8.79-7.04,14.36-7.04h39.15c3.73,0,6.75,3.02,6.75,6.75V509.863z M448.479,598.883 c-3.01,7.24-10.16,12.34-18.49,12.34c-8.33,0-15.48-5.1-18.49-12.34c-0.99-2.36-1.54-4.96-1.54-7.69c0-2.18,0.35-4.28,1-6.25 c2.63-8,10.16-13.78,19.03-13.78c8.87,0,16.4,5.78,19.03,13.78c0.65,1.97,1,4.07,1,6.25 C450.019,593.923,449.469,596.523,448.479,598.883z M544.129,598.883c-3.02,7.24-10.17,12.34-18.49,12.34 c-8.33,0-15.48-5.1-18.5-12.34c-0.99-2.36-1.54-4.96-1.54-7.69c0-2.18,0.35-4.28,1-6.25c2.63-8,10.17-13.78,19.04-13.78 c8.86,0,16.4,5.78,19.03,13.78c0.65,1.97,1,4.07,1,6.25C545.669,593.923,545.119,596.523,544.129,598.883z M707.849,598.883 c-3.02,7.24-10.17,12.34-18.5,12.34c-8.32,0-15.47-5.1-18.49-12.34c-0.99-2.36-1.54-4.96-1.54-7.69c0-2.18,0.35-4.28,1-6.25 c2.63-8,10.171-13.78,19.03-13.78c8.87,0,16.41,5.78,19.04,13.78c0.65,1.97,1,4.07,1,6.25 C709.389,593.923,708.839,596.523,707.849,598.883z M803.499,598.883c-3.02,7.24-10.17,12.34-18.5,12.34 c-8.33,0-15.48-5.1-18.5-12.34c-0.99-2.36-1.53-4.96-1.53-7.69c0-2.18,0.35-4.28,1-6.25c2.63-8,10.16-13.78,19.03-13.78 c8.87,0,16.4,5.78,19.03,13.78c0.65,1.97,1,4.07,1,6.25C805.029,593.923,804.489,596.523,803.499,598.883z M799.737,548.533H415.25 c-4.694,0-8.5-3.805-8.5-8.5c0-4.694,3.806-8.5,8.5-8.5h384.487c4.694,0,8.5,3.806,8.5,8.5 C808.237,544.727,804.432,548.533,799.737,548.533z M799.737,439.313H415.25c-4.694,0-8.5-3.806-8.5-8.5c0-4.694,3.806-8.5,8.5-8.5 h384.487c4.694,0,8.5,3.806,8.5,8.5C808.237,435.508,804.432,439.313,799.737,439.313z" style="fill:#EFBE4C;"/>
</g>
</svg>