<svg width="100" height="100" viewBox="0 0 1000 1000" xmlns="http://www.w3.org/2000/svg" fill="#EFBE4C"><path d="M835.039 367.227H369.611c-8.882 0-16.082 7.201-16.082 16.082v5.18c0 6.856 4.298 12.694 10.34 15.008v158.045h-19.11v-111.31c0-.027.004-.052.004-.079v-14.744c0-4.633-4.279-8.082-8.807-7.098l-26.509 5.763a7.264 7.264 0 00-5.471 5.21l-1.402 5.208h-20.715c-10.87 0-21.13 5.03-27.79 13.62l-29.69 38.29a35.215 35.215 0 01-20.8 12.91l-19.13 3.89c-12.36 2.5-21.77 12.56-23.47 25.05l-3.4 25.09c-5.17 2.66-8.7 8.06-8.7 14.28v5.18c0 8.88 7.2 16.08 16.08 16.08h21.54c3.61 19.29 20.53 33.89 40.86 33.89s37.26-14.6 40.87-33.89h120.89c3.61 19.29 20.54 33.89 40.87 33.89 20.329 0 37.26-14.6 40.87-33.89h13.91c3.61 19.29 20.53 33.89 40.87 33.89 20.33 0 37.25-14.6 40.86-33.89h81.99c3.61 19.29 20.53 33.89 40.86 33.89 20.34 0 37.26-14.6 40.87-33.89h13.91c3.61 19.29 20.54 33.89 40.87 33.89s37.26-14.6 40.87-33.89h9.17c8.15 0 14.89-6.07 15.93-13.94h.15V388.527l.002-.038v-5.18c0-8.882-7.201-16.082-16.082-16.082zm-655.06 194.316c-1.01.98-2.17 1.54-3.39 1.54-1.23 0-2.39-.56-3.4-1.54-2.22-2.16-3.73-6.37-3.73-11.21 0-7.04 3.19-12.75 7.13-12.75 3.93 0 7.12 5.71 7.12 12.75 0 4.84-1.51 9.05-3.73 11.21zm65.88 37.34c-3.02 7.24-10.17 12.34-18.5 12.34s-15.48-5.1-18.5-12.34c-.99-2.36-1.53-4.96-1.53-7.69 0-2.18.35-4.28 1-6.25 2.63-8 10.16-13.78 19.03-13.78 8.87 0 16.4 5.78 19.03 13.78.65 1.97 1 4.07 1 6.25 0 2.73-.54 5.33-1.53 7.69zm81.9-89.02c0 3.73-3.02 6.75-6.75 6.75h-61.75c-1.9 0-3.68-.83-4.99-2.21a36.87 36.87 0 00-7.94-6.36c-3.45-2.05-4.27-6.7-1.8-9.88l22.97-29.63c3.42-4.41 8.79-7.04 14.36-7.04h39.15c3.73 0 6.75 3.02 6.75 6.75v41.62zm120.72 89.02c-3.01 7.24-10.16 12.34-18.49 12.34-8.33 0-15.48-5.1-18.49-12.34a19.84 19.84 0 01-1.54-7.69c0-2.18.35-4.28 1-6.25 2.63-8 10.16-13.78 19.03-13.78 8.87 0 16.4 5.78 19.03 13.78.65 1.97 1 4.07 1 6.25 0 2.73-.55 5.33-1.54 7.69zm95.65 0c-3.02 7.24-10.17 12.34-18.49 12.34-8.33 0-15.48-5.1-18.5-12.34a19.84 19.84 0 01-1.54-7.69c0-2.18.35-4.28 1-6.25 2.63-8 10.17-13.78 19.04-13.78 8.86 0 16.4 5.78 19.03 13.78.65 1.97 1 4.07 1 6.25 0 2.73-.55 5.33-1.54 7.69zm163.72 0c-3.02 7.24-10.17 12.34-18.5 12.34-8.32 0-15.47-5.1-18.49-12.34a19.84 19.84 0 01-1.54-7.69c0-2.18.35-4.28 1-6.25 2.63-8 10.171-13.78 19.03-13.78 8.87 0 16.41 5.78 19.04 13.78.65 1.97 1 4.07 1 6.25 0 2.73-.55 5.33-1.54 7.69zm95.65 0c-3.02 7.24-10.17 12.34-18.5 12.34s-15.48-5.1-18.5-12.34c-.99-2.36-1.53-4.96-1.53-7.69 0-2.18.35-4.28 1-6.25 2.63-8 10.16-13.78 19.03-13.78 8.87 0 16.4 5.78 19.03 13.78.65 1.97 1 4.07 1 6.25 0 2.73-.54 5.33-1.53 7.69zm-3.762-50.35H415.25a8.5 8.5 0 110-17h384.487a8.5 8.5 0 010 17zm0-109.22H415.25a8.5 8.5 0 010-17h384.487a8.5 8.5 0 010 17z" fill="#efbe4c"/></svg>